<svg xmlns="http://www.w3.org/2000/svg" width="53" height="53"><path fill="#fff" d="M53 26.5C53 41.112 41.112 53 26.5 53S0 41.112 0 26.5C0 11.887 11.888 0 26.5 0a1.079 1.079 0 010 2.157c-13.423 0-24.343 10.92-24.343 24.343 0 13.422 10.92 24.343 24.343 24.343S50.843 39.923 50.843 26.5c0-3.927-.906-7.676-2.693-11.14a24.568 24.568 0 00-7.192-8.446 1.079 1.079 0 011.283-1.735 26.735 26.735 0 017.826 9.191A26.575 26.575 0 0153 26.5zM20.804 14.206l19.094 11.367a1.078 1.078 0 01.033 1.833l-13.206 8.508a1.078 1.078 0 11-1.168-1.813l11.742-7.565L21.33 17.03v21.772a1.079 1.079 0 01-2.157 0v-23.67a1.079 1.079 0 011.63-.926z"/></svg>